<svg xmlns="http://www.w3.org/2000/svg" xmlns:xlink="http://www.w3.org/1999/xlink" version="1.1" id="Calque_1" x="0px" y="0px" viewBox="0 0 90 90" style="enable-background:new 0 0 90 90;" xml:space="preserve">
<style type="text/css">
	.st0{fill:#33dd48;}
	.st1{fill:#85de91;}
</style>
<g>
	<rect x="41.6" y="1.7" class="st0" width="7.1" height="80.4" fill="#000000"/>
	<rect x="58" y="61.9" class="st1" width="23.4" height="2.7" fill="#000000"/>
	<rect x="8.7" y="61.9" class="st1" width="23.4" height="2.7" fill="#000000"/>
	<path class="st1" d="M2.2,49.2c0,0,7.8-0.6,7.4-4.5c-0.4-3.9-0.3,5.6-0.3,5.6l-1.8,1.9l-4.2,0.7L2.2,49.2z" fill="#000000"/>
	<path class="st1" d="M87.7,49.2c0,0-7.8-0.6-7.4-4.5s0.3,5.6,0.3,5.6l1.8,1.9l4.2,0.7L87.7,49.2z" fill="#000000"/>
	<g>
		<path d="M88.9,87.8H49.8v0c-0.7,0-1.5,0-2.2,0v0h-5.2v0c-0.7,0-1.5,0-2.2,0v0H1.1c-0.6,0-1.1,0.5-1.1,1.1C0,89.5,0.5,90,1.1,90    h87.8c0.6,0,1.1-0.5,1.1-1.1C90,88.3,89.5,87.8,88.9,87.8z" fill="#000000"/>
		<path d="M42.4,2.2h5.2v78.7c0,0.6,0.5,1.1,1.1,1.1l0,0c0.6,0,1.1-0.5,1.1-1.1v-39l23.6,0c0.6,0,1.1-0.4,1.2-1    c0.1-0.7-0.4-1.2-1.1-1.2H49.8V1.1c0-0.6-0.5-1.1-1.1-1.1h-7.4c-0.6,0-1.1,0.5-1.1,1.1v38.6l-23.6,0c-0.6,0-1.1,0.4-1.2,1    c-0.1,0.7,0.4,1.2,1.1,1.2h23.6v39c0,0.6,0.5,1.1,1.1,1.1l0,0c0.6,0,1.1-0.5,1.1-1.1V2.2z" fill="#000000"/>
		<path d="M7.3,62.9v1.8c0,0.6,0.5,1.1,1.1,1.1h10.8v10h-9.1c-2.3,0-4.2,1.9-4.2,4.2v0.1c-0.6,0.4-1,1-1,1.8c0,1.2,1,2.1,2.1,2.1    c1.2,0,2.1-1,2.1-2.1c0-0.8-0.4-1.4-1-1.8v-0.1c0-1.1,0.9-2,2-2h9.1v2.1c-0.6,0.4-1,1-1,1.8c0,1.2,1,2.1,2.1,2.1    c1.2,0,2.1-1,2.1-2.1c0-0.8-0.4-1.4-1-1.8v-2.1h9.1c1.1,0,2,0.9,2,2v0.1c-0.6,0.4-1,1-1,1.8c0,1.2,1,2.1,2.1,2.1    c1.2,0,2.1-1,2.1-2.1c0-0.8-0.4-1.4-1-1.8v-0.1c0-2.3-1.9-4.2-4.2-4.2h-9.1v-10h10.8c0.6,0,1.1-0.5,1.1-1.1v-4.5    c0-4.8-7.4-5.3-13-5.3s-13,0.6-13,5.3v0.4c-2.2-0.5-3.9-2.4-3.9-4.8v-2.5h1.7c3.3,0,5.7-2.4,5.7-5.7c0.4-6.6-2.1-14.6-4.6-17.2    c-0.7-0.7-1.4-1.1-2.1-1.1H2.3c-0.6,0-1.1,0.5-1.1,1.1v25.4C1.2,59.5,3.9,62.5,7.3,62.9z M9.5,60.3c0-1.4,1.9-3.2,10.8-3.2    c8.9,0,10.8,1.7,10.8,3.2v3.4H9.5V60.3z M3.4,31.6h0.7c1.4,0.2,4.9,8.5,4.5,16c0,0,0,0,0,0.1c0,2.1-1.4,3.5-3.5,3.5H3.4V31.6z" fill="#000000"/>
		<path d="M84.9,53.4h1.7v2.5c0,2.4-1.7,4.4-3.9,4.8v-0.4c0-4.8-7.4-5.3-13-5.3s-13,0.6-13,5.3v4.5c0,0.6,0.5,1.1,1.1,1.1h10.8v10    h-9.1c-2.3,0-4.2,1.9-4.2,4.2v0.1c-0.6,0.4-1,1-1,1.8c0,1.2,1,2.1,2.1,2.1s2.1-1,2.1-2.1c0-0.8-0.4-1.4-1-1.8v-0.1    c0-1.1,0.9-2,2-2h9.1v2.1c-0.6,0.4-1,1-1,1.8c0,1.2,1,2.1,2.1,2.1s2.1-1,2.1-2.1c0-0.8-0.4-1.4-1-1.8v-2.1h9.1c1.1,0,2,0.9,2,2    v0.1c-0.6,0.4-1,1-1,1.8c0,1.2,1,2.1,2.1,2.1c1.2,0,2.1-1,2.1-2.1c0-0.8-0.4-1.4-1-1.8v-0.1c0-2.3-1.9-4.2-4.2-4.2h-9.1v-10h10.8    c0.6,0,1.1-0.5,1.1-1.1v-1.8c3.5-0.5,6.1-3.4,6.1-7V30.5c0-0.6-0.5-1.1-1.1-1.1h-1.8c-0.7,0-1.4,0.4-2.1,1.1    c-2.4,2.6-5,10.7-4.6,17.2C79.2,51,81.6,53.4,84.9,53.4z M80.5,63.7H58.9v-3.4c0-1.4,1.9-3.2,10.8-3.2c8.9,0,10.8,1.7,10.8,3.2    V63.7z M85.9,31.6h0.7v19.6h-1.7c-2.1,0-3.5-1.4-3.5-3.5c0,0,0,0,0-0.1C81,40.2,84.5,31.8,85.9,31.6z" fill="#000000"/>
	</g>
</g>
</svg>