<svg xmlns="http://www.w3.org/2000/svg" id="Calque_1" viewBox="0 0 90 90"><defs fill="#000000"><style>.cls-1,.cls-2,.cls-3{stroke-width:0px;}.cls-2{fill:#33dd48;}.cls-3{fill:#88ed92;}</style></defs><rect class="cls-2" x="80.66" y="15.28" width="5.94" height="74.72" fill="#000000"/><rect class="cls-3" x="38.21" y="0" width="6.79" height="88.3" fill="#000000"/><rect class="cls-3" x="21.23" y="72.17" width="7.51" height="16.98" fill="#000000"/><rect class="cls-2" x="61.62" y="72.17" width="7.51" height="16.98" fill="#000000"/><path class="cls-1" d="m78.11,25.47h-25.47c-.47,0-.85.38-.85.85v7.64h-.85c-.47,0-.85.38-.85.85s.38.85.85.85h28.87c.47,0,.85-.38.85-.85s-.38-.85-.85-.85h-.85v-7.64c0-.47-.38-.85-.85-.85Zm-24.62,1.7h6.79v6.79h-6.79v-6.79Zm8.49,0h6.79v6.79h-6.79v-6.79Zm8.49,6.79v-6.79h6.79v6.79h-6.79Z" fill="#000000"/><path class="cls-1" d="m89.15,88.3h-2.55V16.98h2.55c.47,0,.85-.38.85-.85s-.38-.85-.85-.85h-40.75c-.47,0-.85.38-.85.85s.38.85.85.85h36.51v71.32h-14.43v-6.79h9.34c.47,0,.85-.38.85-.85s-.38-.85-.85-.85h-.85v-7.64c0-.47-.38-.85-.85-.85h-25.47c-.47,0-.85.38-.85.85v7.64h-.85c-.47,0-.85.38-.85.85s.38.85.85.85h9.34v6.79h-14.43V1.7h2.55c.47,0,.85-.38.85-.85s-.38-.85-.85-.85H.85c-.47,0-.85.38-.85.85s.38.85.85.85h2.55v86.6H.85c-.47,0-.85.38-.85.85s.38.85.85.85h88.3c.47,0,.85-.38.85-.85s-.38-.85-.85-.85Zm-11.89-8.49h-6.79v-6.79h6.79v6.79Zm-23.77,0v-6.79h6.79v6.79h-6.79Zm-33.96,0h-6.79v-6.79h6.79v6.79Zm1.7,8.49v-15.28h6.79v15.28h-6.79Zm8.49-15.28h6.79v6.79h-6.79v-6.79Zm0,15.28v-6.79h9.34c.47,0,.85-.38.85-.85s-.38-.85-.85-.85h-.85v-7.64c0-.47-.38-.85-.85-.85H11.89c-.47,0-.85.38-.85.85v7.64h-.85c-.47,0-.85.38-.85.85s.38.85.85.85h9.34v6.79H5.09V1.7h39.06v86.6h-14.43Zm32.26,0v-15.28h6.79v15.28h-6.79Z" fill="#000000"/><path class="cls-1" d="m50.94,50.94h28.87c.47,0,.85-.38.85-.85s-.38-.85-.85-.85h-.85v-7.64c0-.47-.38-.85-.85-.85h-25.47c-.47,0-.85.38-.85.85v7.64h-.85c-.47,0-.85.38-.85.85s.38.85.85.85Zm26.32-1.7h-6.79v-6.79h6.79v6.79Zm-8.49,0h-6.79v-6.79h6.79v6.79Zm-15.28-6.79h6.79v6.79h-6.79v-6.79Z" fill="#000000"/><path class="cls-1" d="m50.94,66.23h28.87c.47,0,.85-.38.85-.85s-.38-.85-.85-.85h-.85v-7.64c0-.47-.38-.85-.85-.85h-25.47c-.47,0-.85.38-.85.85v7.64h-.85c-.47,0-.85.38-.85.85s.38.85.85.85Zm26.32-1.7h-6.79v-6.79h6.79v6.79Zm-8.49,0h-6.79v-6.79h6.79v6.79Zm-15.28-6.79h6.79v6.79h-6.79v-6.79Z" fill="#000000"/><path class="cls-1" d="m39.06,33.96h-.85v-7.64c0-.47-.38-.85-.85-.85H11.89c-.47,0-.85.38-.85.85v7.64h-.85c-.47,0-.85.38-.85.85s.38.85.85.85h28.87c.47,0,.85-.38.85-.85s-.38-.85-.85-.85Zm-26.32-6.79h6.79v6.79h-6.79v-6.79Zm8.49,0h6.79v6.79h-6.79v-6.79Zm8.49,6.79v-6.79h6.79v6.79h-6.79Z" fill="#000000"/><path class="cls-1" d="m39.06,18.68h-.85v-7.64c0-.47-.38-.85-.85-.85H11.89c-.47,0-.85.38-.85.85v7.64h-.85c-.47,0-.85.38-.85.85s.38.85.85.85h28.87c.47,0,.85-.38.85-.85s-.38-.85-.85-.85Zm-26.32-6.79h6.79v6.79h-6.79v-6.79Zm8.49,0h6.79v6.79h-6.79v-6.79Zm8.49,6.79v-6.79h6.79v6.79h-6.79Z" fill="#000000"/><path class="cls-1" d="m39.06,49.25h-.85v-7.64c0-.47-.38-.85-.85-.85H11.89c-.47,0-.85.38-.85.85v7.64h-.85c-.47,0-.85.38-.85.85s.38.85.85.85h28.87c.47,0,.85-.38.85-.85s-.38-.85-.85-.85Zm-26.32-6.79h6.79v6.79h-6.79v-6.79Zm8.49,0h6.79v6.79h-6.79v-6.79Zm8.49,6.79v-6.79h6.79v6.79h-6.79Z" fill="#000000"/><path class="cls-1" d="m39.06,64.53h-.85v-7.64c0-.47-.38-.85-.85-.85H11.89c-.47,0-.85.38-.85.85v7.64h-.85c-.47,0-.85.38-.85.85s.38.85.85.85h28.87c.47,0,.85-.38.85-.85s-.38-.85-.85-.85Zm-26.32-6.79h6.79v6.79h-6.79v-6.79Zm8.49,0h6.79v6.79h-6.79v-6.79Zm8.49,6.79v-6.79h6.79v6.79h-6.79Z" fill="#000000"/></svg>