<svg xmlns="http://www.w3.org/2000/svg" xmlns:xlink="http://www.w3.org/1999/xlink" version="1.1" id="Calque_1" x="0px" y="0px" viewBox="0 0 89.4 90" style="enable-background:new 0 0 89.4 90;" xml:space="preserve">
<style type="text/css">
	.st0{fill:#33dd48;}
	.st1{fill:#67e079;}
</style>
<g>
	<g>
		<g>
			<path class="st0" d="M11.8,33.6L11.8,33.6c-3.7,0-6.8-3-6.8-6.8v-5.6h13.6v5.6C18.6,30.5,15.5,33.6,11.8,33.6z" fill="#000000"/>
			<path class="st0" d="M18.2,21.6v5.2c0,3.5-2.8,6.3-6.3,6.3s-6.3-2.8-6.3-6.3v-5.2H18.2 M18.6,21.2H5v5.6c0,3.7,3,6.8,6.8,6.8     c3.7,0,6.8-3,6.8-6.8V21.2L18.6,21.2z" fill="#000000"/>
		</g>
		<g>
			<path class="st0" d="M38.1,33.6L38.1,33.6c-3.7,0-6.8-3-6.8-6.8v-5.6h13.6v5.6C44.9,30.5,41.9,33.6,38.1,33.6z" fill="#000000"/>
			<path class="st0" d="M44.5,21.6v5.2c0,3.5-2.8,6.3-6.3,6.3c-3.5,0-6.3-2.8-6.3-6.3v-5.2H44.5 M44.9,21.2H31.4v5.6     c0,3.7,3,6.8,6.8,6.8c3.7,0,6.8-3,6.8-6.8V21.2L44.9,21.2z" fill="#000000"/>
		</g>
		<g>
			<path class="st0" d="M64.5,33.6L64.5,33.6c-3.7,0-6.8-3-6.8-6.8v-5.6h13.6v5.6C71.2,30.5,68.2,33.6,64.5,33.6z" fill="#000000"/>
			<path class="st0" d="M70.8,21.6v5.2c0,3.5-2.8,6.3-6.3,6.3s-6.3-2.8-6.3-6.3v-5.2H70.8 M71.2,21.2H57.7v5.6c0,3.7,3,6.8,6.8,6.8     c3.7,0,6.8-3,6.8-6.8V21.2L71.2,21.2z" fill="#000000"/>
		</g>
		<g>
			<rect x="20.5" y="1.1" class="st0" width="48.8" height="12.4" fill="#000000"/>
			<path class="st0" d="M68.9,1.5V13H20.9V1.5H68.9 M69.3,1.1H20.5v12.4h48.8V1.1L69.3,1.1z" fill="#000000"/>
		</g>
		<g>
			<rect x="77.4" y="33.6" class="st1" width="2.7" height="46.5" fill="#000000"/>
		</g>
		<g>
			<rect x="1.5" y="80" class="st1" width="86.7" height="5" fill="#000000"/>
		</g>
	</g>
	<g>
		<path d="M25.4,34.3h-0.1c-4.1,0-7.4-3.3-7.4-7.4v-6c0-0.5,0.4-0.9,0.9-0.9c0.5,0,0.9,0.4,0.9,0.9v6c0,3.1,2.5,5.7,5.7,5.7h0.1    c3.1,0,5.7-2.5,5.7-5.7v-6c0-0.5,0.4-0.9,0.9-0.9c0.5,0,0.9,0.4,0.9,0.9v6C32.8,31,29.5,34.3,25.4,34.3z" fill="#000000"/>
		<path d="M38.2,34.3h-0.1c-4.1,0-7.4-3.3-7.4-7.4v-6c0-0.5,0.4-0.9,0.9-0.9c0.5,0,0.9,0.4,0.9,0.9v6c0,3.1,2.5,5.7,5.7,5.7h0.1    c3.1,0,5.7-2.5,5.7-5.7v-6c0-0.5,0.4-0.9,0.9-0.9c0.5,0,0.9,0.4,0.9,0.9v6C45.6,31,42.3,34.3,38.2,34.3z" fill="#000000"/>
		<path d="M51.4,34.3h-0.1c-4.1,0-7.4-3.3-7.4-7.4v-6c0-0.5,0.4-0.9,0.9-0.9c0.5,0,0.9,0.4,0.9,0.9v6c0,3.1,2.5,5.7,5.7,5.7h0.1    c3.1,0,5.7-2.5,5.7-5.7v-6c0-0.5,0.4-0.9,0.9-0.9c0.5,0,0.9,0.4,0.9,0.9v6C58.7,31,55.4,34.3,51.4,34.3z" fill="#000000"/>
		<path d="M64.1,34.3H64c-4.1,0-7.4-3.3-7.4-7.4v-6c0-0.5,0.4-0.9,0.9-0.9s0.9,0.4,0.9,0.9v6c0,3.1,2.5,5.7,5.7,5.7h0.1    c3.1,0,5.7-2.5,5.7-5.7v-6c0-0.5,0.4-0.9,0.9-0.9c0.5,0,0.9,0.4,0.9,0.9v6C71.5,31,68.2,34.3,64.1,34.3z" fill="#000000"/>
		<path d="M77.3,34.3h-0.1c-4.1,0-7.4-3.3-7.4-7.4v-6c0-0.5,0.4-0.9,0.9-0.9c0.5,0,0.9,0.4,0.9,0.9v6c0,3.1,2.5,5.7,5.7,5.7h0.1    c3.1,0,5.7-2.5,5.7-5.7v-4.8c0-0.6-0.2-1.1-0.6-1.5l-5.6-6.6l-64.3,0L7,20.7c-0.4,0.4-0.6,1-0.6,1.5v4.8c0,3.1,2.5,5.7,5.7,5.7    h0.1c3.1,0,5.7-2.5,5.7-5.7v-6c0-0.5,0.4-0.9,0.9-0.9c0.5,0,0.9,0.4,0.9,0.9v6c0,4.1-3.3,7.4-7.4,7.4h-0.1c-4.1,0-7.4-3.3-7.4-7.4    v-4.8c0-1,0.3-1.9,1-2.6l5.6-6.6c0.3-0.4,0.8-0.6,1.3-0.6h64.3c0.5,0,1,0.2,1.3,0.6l5.6,6.6c0.6,0.7,1,1.7,1,2.6v4.8    C84.7,31,81.4,34.3,77.3,34.3z" fill="#000000"/>
		<path d="M69.1,13.3c-0.5,0-0.9-0.4-0.9-0.9V1.7H21.2v10.8c0,0.5-0.4,0.9-0.9,0.9s-0.9-0.4-0.9-0.9V0H70v12.5    C70,13,69.6,13.3,69.1,13.3z" fill="#000000"/>
		<path d="M88.1,90c-0.5,0-0.9-0.4-0.9-0.9v-8h-85v8c0,0.5-0.4,0.9-0.9,0.9s-0.9-0.4-0.9-0.9v-8.8c0-0.5,0.4-1,1-1h86.5    c0.5,0,1,0.4,1,1v8.8C88.9,89.6,88.6,90,88.1,90z" fill="#000000"/>
		<path d="M80.3,80.7c-0.5,0-0.9-0.4-0.9-0.9V32.6c0-0.5,0.4-0.9,0.9-0.9c0.5,0,0.9,0.4,0.9,0.9v47.2C81.2,80.3,80.8,80.7,80.3,80.7    z" fill="#000000"/>
		<path d="M63.9,58.6c-0.2,0-0.4-0.1-0.6-0.3L50.4,45.4c-0.3-0.3-0.3-0.9,0-1.2c0.3-0.3,0.9-0.3,1.2,0l12.9,12.9    c0.3,0.3,0.3,0.9,0,1.2C64.4,58.5,64.2,58.6,63.9,58.6z" fill="#000000"/>
		<path d="M63.4,67.3c-0.2,0-0.4-0.1-0.6-0.3L55,59.3c-0.3-0.3-0.3-0.9,0-1.2c0.3-0.3,0.9-0.3,1.2,0l7.8,7.8c0.3,0.3,0.3,0.9,0,1.2    C63.8,67.2,63.6,67.3,63.4,67.3z" fill="#000000"/>
		<path d="M9.1,80.7c-0.5,0-0.9-0.4-0.9-0.9V32.6c0-0.5,0.4-0.9,0.9-0.9c0.5,0,0.9,0.4,0.9,0.9v47.2C10,80.3,9.6,80.7,9.1,80.7z" fill="#000000"/>
		<path d="M33.1,80.7c-0.5,0-0.9-0.4-0.9-0.9V37.6c0-0.5,0.4-0.9,0.9-0.9s0.9,0.4,0.9,0.9v42.2C34,80.3,33.6,80.7,33.1,80.7z" fill="#000000"/>
		<path d="M38.5,80.7c-0.5,0-0.9-0.4-0.9-0.9V37.6c0-0.5,0.4-0.9,0.9-0.9s0.9,0.4,0.9,0.9v42.2C39.4,80.3,39,80.7,38.5,80.7z" fill="#000000"/>
		<path d="M74.5,80.7c-0.5,0-0.9-0.4-0.9-0.9V37.6c0-0.5,0.4-0.9,0.9-0.9c0.5,0,0.9,0.4,0.9,0.9v42.2C75.4,80.3,75,80.7,74.5,80.7z" fill="#000000"/>
		<path d="M15.3,80.7c-0.5,0-0.9-0.4-0.9-0.9V37.6c0-0.5,0.4-0.9,0.9-0.9c0.5,0,0.9,0.4,0.9,0.9v42.2C16.1,80.3,15.8,80.7,15.3,80.7    z" fill="#000000"/>
		<path d="M25.7,62.1h-1.2c-0.5,0-0.9-0.4-0.9-0.9c0-0.5,0.4-0.9,0.9-0.9h1.2c0.5,0,0.9,0.4,0.9,0.9C26.6,61.7,26.2,62.1,25.7,62.1z    " fill="#000000"/>
	</g>
</g>
</svg>