<svg xmlns="http://www.w3.org/2000/svg" xmlns:xlink="http://www.w3.org/1999/xlink" version="1.1" id="Calque_1" x="0px" y="0px" viewBox="0 0 90 90" style="enable-background:new 0 0 90 90;" xml:space="preserve">
<style type="text/css">
	.st0{fill:#33dd48;}
	.st1{fill:#67e079;}
</style>
<g>
	<g>
		<rect x="53.9" y="56.1" class="st0" width="19.5" height="22.1" fill="#000000"/>
		<path class="st0" d="M73,56.5v21.2H54.4V56.5H73 M73.5,56.1H53.9v22.1h19.5V56.1L73.5,56.1z" fill="#000000"/>
	</g>
	<rect x="33.1" y="12.9" class="st1" width="3.4" height="20.5" fill="#000000"/>
	<rect x="53.5" y="12.7" class="st1" width="3.4" height="20.5" fill="#000000"/>
	<g>
		<rect x="16.1" y="56" class="st0" width="17" height="33.1" fill="#000000"/>
		<path class="st0" d="M32.7,56.5v32.2H16.6V56.5H32.7 M33.1,56h-17v33.1h17V56L33.1,56z" fill="#000000"/>
	</g>
	<g>
		<path d="M89.2,90H0.8C0.4,90,0,89.6,0,89.2c0-0.5,0.4-0.8,0.8-0.8h88.3c0.5,0,0.8,0.4,0.8,0.8C90,89.6,89.6,90,89.2,90z" fill="#000000"/>
		<path d="M85.8,90H4.2c-0.5,0-0.8-0.4-0.8-0.8V50.7c0-0.5,0.4-0.8,0.8-0.8c0.5,0,0.8,0.4,0.8,0.8v37.6h79.8V45    c0-0.5,0.4-0.8,0.8-0.8s0.8,0.4,0.8,0.8v44.2C86.6,89.6,86.2,90,85.8,90z" fill="#000000"/>
		<path d="M34,77.3V56.9l0,0V56c0-0.4-0.4-0.8-0.8-0.8h0c-0.5,0-0.8,0.4-0.8,0.8v22.1c0,0.5,0.4,0.8,0.8,0.8h0.8    C33.9,78.4,33.9,77.8,34,77.3L34,77.3z" fill="#000000"/>
		<path d="M73.9,55.2H37.3c-0.4,0-0.7,0.2-0.8,0.6c-0.2,0.6,0.2,1.1,0.8,1.1H73v20.4H37.3c-0.5,0-0.8,0.4-0.8,0.8l0,0    c0,0.5,0.4,0.8,0.8,0.8h36.5c0.5,0,0.8-0.4,0.8-0.8V56C74.7,55.6,74.3,55.2,73.9,55.2z" fill="#000000"/>
		<path d="M33.1,90h-17c-0.5,0-0.8-0.4-0.8-0.8V56c0-0.5,0.4-0.8,0.8-0.8h17c0.5,0,0.8,0.4,0.8,0.8v33.1C34,89.6,33.6,90,33.1,90z     M17,88.3h15.3V56.9H17V88.3z" fill="#000000"/>
		<path d="M85.8,45.8H21.2c-0.5,0-0.8-0.4-0.8-0.8V9.3c0-0.5,0.4-0.8,0.8-0.8s0.8,0.4,0.8,0.8v34.8h62.8V9.3c0-0.5,0.4-0.8,0.8-0.8    s0.8,0.4,0.8,0.8V45C86.6,45.5,86.2,45.8,85.8,45.8z" fill="#000000"/>
		<path d="M73.9,34H33.1c-0.5,0-0.8-0.4-0.8-0.8V12.7c0-0.5,0.4-0.8,0.8-0.8h40.8c0.5,0,0.8,0.4,0.8,0.8v20.4    C74.7,33.6,74.3,34,73.9,34z M34,32.3H73V13.6H34V32.3z" fill="#000000"/>
		<path d="M53.5,79c-0.5,0-0.8-0.4-0.8-0.8V56c0-0.5,0.4-0.8,0.8-0.8c0.5,0,0.8,0.4,0.8,0.8v22.1C54.3,78.6,54,79,53.5,79z" fill="#000000"/>
		<path d="M53.5,34c-0.5,0-0.8-0.4-0.8-0.8V12.7c0-0.5,0.4-0.8,0.8-0.8c0.5,0,0.8,0.4,0.8,0.8v20.4C54.3,33.6,54,34,53.5,34z" fill="#000000"/>
		<path d="M28,75.6c-0.5,0-0.8-0.4-0.8-0.8v-5.1c0-0.5,0.4-0.8,0.8-0.8s0.8,0.4,0.8,0.8v5.1C28.9,75.2,28.5,75.6,28,75.6z" fill="#000000"/>
		<path d="M89.2,8.5c-0.1,0-0.1,0-0.2,0L53.5,1.7L18,8.5c-0.5,0.1-0.9-0.2-1-0.7c-0.1-0.5,0.2-0.9,0.7-1L53.3,0c0.1,0,0.2,0,0.3,0    l35.7,6.8c0.5,0.1,0.8,0.5,0.7,1C89.9,8.2,89.6,8.5,89.2,8.5z" fill="#000000"/>
		<path d="M0.8,49.7c-0.4,0-0.8-0.3-0.8-0.7c-0.1-0.5,0.2-0.9,0.7-1l20.4-3.9c0.5-0.1,0.9,0.2,1,0.7c0.1,0.5-0.2,0.9-0.7,1L1,49.7    C1,49.7,0.9,49.7,0.8,49.7z" fill="#000000"/>
	</g>
</g>
</svg>