<svg xmlns="http://www.w3.org/2000/svg" xmlns:xlink="http://www.w3.org/1999/xlink" version="1.1" id="Calque_1" x="0px" y="0px" viewBox="0 0 93.7 90" style="enable-background:new 0 0 93.7 90;" xml:space="preserve">
<style type="text/css">
	.st0{fill:#67e079;}
	.st1{fill:#33dd48;}
</style>
<g>
	<g>
		<g>
			<path class="st0" d="M92.7,88.3l-8.5-43.5c-0.1-0.5-0.6-0.9-1.1-0.9h-2.4l8.1,41.4c0.1,0.3-0.2,0.6-0.5,0.6h-87l-0.5,2.4     c-0.1,0.3,0.2,0.6,0.5,0.6h90.9C92.6,88.8,92.8,88.6,92.7,88.3z" fill="#000000"/>
		</g>
		<g>
			<path class="st1" d="M47.3,0.9c-0.3,0-0.5,0-0.8,0c-0.3,0-0.5,0-0.8,0C29.9,1.4,20.1,18.5,27.2,32.6l17.8,35.3     c0.6,1.2,2.2,1.2,2.8,0l17.8-35.3C72.9,18.5,63.1,1.4,47.3,0.9z M46.5,30.4c-5.2,0-9.5-4.3-9.5-9.5c0-5.2,4.3-9.5,9.5-9.5     s9.5,4.3,9.5,9.5C56,26.2,51.7,30.4,46.5,30.4z" fill="#000000"/>
			<path class="st1" d="M46.5,1.3c0.3,0,0.5,0,0.8,0c7.2,0.2,13.7,4.1,17.4,10.4c3.8,6.4,4.1,14.2,0.7,20.8L47.5,67.7     c-0.2,0.4-0.6,0.6-1,0.6c-0.4,0-0.8-0.2-1-0.6L27.6,32.4c-3.3-6.6-3.1-14.4,0.7-20.8C32,5.4,38.5,1.5,45.7,1.3     C46,1.3,46.2,1.3,46.5,1.3 M46.5,30.9c5.5,0,9.9-4.5,9.9-9.9c0-5.5-4.5-9.9-9.9-9.9s-9.9,4.5-9.9,9.9     C36.6,26.4,41,30.9,46.5,30.9 M46.5,0.9c-0.3,0-0.5,0-0.8,0C29.9,1.4,20.1,18.5,27.2,32.6l17.8,35.3c0.3,0.6,0.8,0.9,1.4,0.9     c0.6,0,1.1-0.3,1.4-0.9l17.8-35.3c7.1-14.1-2.6-31.2-18.4-31.7C47,0.9,46.8,0.9,46.5,0.9L46.5,0.9z M46.5,30.4     c-5.2,0-9.5-4.3-9.5-9.5c0-5.2,4.3-9.5,9.5-9.5c5.2,0,9.5,4.3,9.5,9.5C56,26.2,51.7,30.4,46.5,30.4L46.5,30.4z" fill="#000000"/>
		</g>
		<g>
			<path class="st0" d="M12.7,72.6h37.6l13.5-6.8L82,80.3c0.1,0.1,0.1,0.3-0.1,0.3H11.8c-0.3,0-0.6-0.3-0.5-0.7L12.7,72.6z" fill="#000000"/>
		</g>
		<g>
			<polygon class="st0" points="13.9,66.6 39.6,57.6 36,50.3 17,50.3    " fill="#000000"/>
		</g>
	</g>
	<g>
		<path d="M92.4,90h-91c-0.4,0-0.8-0.2-1-0.5C0,89.2-0.1,88.8,0,88.4l8.5-43.5c0.2-0.9,1-1.6,1.9-1.6h15.7c0.5,0,0.9,0.4,0.9,0.9    c0,0.5-0.4,0.9-0.9,0.9H10.5c-0.1,0-0.2,0.1-0.3,0.2L1.8,88.3h90.1l-8.4-43.1c0-0.1-0.1-0.2-0.3-0.2H66.9c-0.5,0-0.9-0.4-0.9-0.9    c0-0.5,0.4-0.9,0.9-0.9h16.3c0.9,0,1.8,0.7,1.9,1.6l8.5,43.5c0.1,0.4,0,0.8-0.3,1.1C93.2,89.8,92.8,90,92.4,90z M92,88.7L92,88.7    L92,88.7z" fill="#000000"/>
		<path d="M82.2,82.3H11.5c-0.4,0-0.7-0.2-0.9-0.4c-0.2-0.3-0.3-0.7-0.3-1L16,50.6c0.1-0.8,0.8-1.3,1.6-1.3h7.8    c0.5,0,0.9,0.4,0.9,0.9c0,0.5-0.4,0.9-0.9,0.9h-7.7l-5.5,29.6h69.5L76,51h-9.1c-0.5,0-0.9-0.4-0.9-0.9c0-0.5,0.4-0.9,0.9-0.9h9.2    c0.8,0,1.4,0.5,1.6,1.3l5.7,30.2c0.1,0.4,0,0.7-0.3,1C82.9,82.1,82.5,82.3,82.2,82.3z M81.7,81.2C81.7,81.2,81.7,81.2,81.7,81.2    L81.7,81.2z M12,81.1L12,81.1C12,81.2,12,81.1,12,81.1z" fill="#000000"/>
		<path d="M46.5,69.7c-0.9,0-1.8-0.5-2.2-1.3L26.5,33c-3.5-7-3.3-15.2,0.8-22C31.2,4.4,38.1,0.3,45.7,0c0.6,0,1.1,0,1.7,0    C55,0.3,61.9,4.4,65.8,11c4,6.8,4.3,15,0.8,22L48.7,68.4C48.3,69.2,47.5,69.7,46.5,69.7z M46.5,1.7c-0.3,0-0.5,0-0.8,0    c-7,0.2-13.4,4-17,10.2c-3.7,6.3-4,13.9-0.7,20.4l17.9,35.4c0.2,0.4,0.5,0.4,0.6,0.4c0.1,0,0.5,0,0.6-0.4L65,32.3    c3.3-6.5,3-14.1-0.7-20.4c-3.6-6.1-10-9.9-17-10.2C47.1,1.7,46.8,1.7,46.5,1.7z" fill="#000000"/>
		<path d="M46.5,31.3c-5.7,0-10.4-4.7-10.4-10.4s4.7-10.4,10.4-10.4c5.7,0,10.4,4.7,10.4,10.4c0,0.5-0.4,0.9-0.9,0.9    c-0.5,0-0.9-0.4-0.9-0.9c0-4.8-3.9-8.7-8.7-8.7c-4.8,0-8.7,3.9-8.7,8.7s3.9,8.7,8.7,8.7c0.5,0,0.9,0.4,0.9,0.9    C47.4,30.9,47,31.3,46.5,31.3z" fill="#000000"/>
		<path d="M14.7,67.2c-0.4,0-0.7-0.2-0.8-0.6c-0.2-0.4,0.1-0.9,0.5-1.1l20-7.1c0.4-0.2,0.9,0.1,1.1,0.5c0.2,0.4-0.1,0.9-0.5,1.1    l-20,7.1C14.9,67.2,14.8,67.2,14.7,67.2z" fill="#000000"/>
		<path d="M48.5,73.7H13.4c-0.5,0-0.9-0.4-0.9-0.9s0.4-0.9,0.9-0.9h35.1c1.1,0,2.2-0.3,3.2-0.8l25.3-12.7c0.4-0.2,0.9,0,1.2,0.4    c0.2,0.4,0,0.9-0.4,1.2L52.4,72.8C51.2,73.4,49.8,73.7,48.5,73.7z" fill="#000000"/>
		<path d="M81.7,81.3c-0.2,0-0.4-0.1-0.5-0.2L63.3,66.7c-0.4-0.3-0.4-0.8-0.1-1.2s0.8-0.4,1.2-0.1l17.9,14.4    c0.4,0.3,0.4,0.8,0.1,1.2C82.2,81.2,82,81.3,81.7,81.3z" fill="#000000"/>
	</g>
</g>
</svg>